<svg class="marks" width="962" height="647" viewBox="0 0 962 647" version="1.1" xmlns="http://www.w3.org/2000/svg" xmlns:xlink="http://www.w3.org/1999/xlink"><rect width="962" height="647" style="fill: white;"></rect><defs><linearGradient id="gradient_0" x1="0" x2="0" y1="1" y2="0"><stop offset="0" stop-color="rgb(239, 249, 189)"></stop><stop offset="0.043478260869565216" stop-color="rgb(230, 246, 185)"></stop><stop offset="0.13043478260869565" stop-color="rgb(210, 237, 180)"></stop><stop offset="0.21739130434782608" stop-color="rgb(182, 226, 182)"></stop><stop offset="0.30434782608695654" stop-color="rgb(146, 212, 185)"></stop><stop offset="0.391304347826087" stop-color="rgb(109, 198, 190)"></stop><stop offset="0.4782608695652174" stop-color="rgb(77, 184, 193)"></stop><stop offset="0.5652173913043478" stop-color="rgb(53, 166, 193)"></stop><stop offset="0.6521739130434783" stop-color="rgb(38, 143, 188)"></stop><stop offset="0.7391304347826086" stop-color="rgb(33, 118, 179)"></stop><stop offset="0.8260869565217391" stop-color="rgb(34, 92, 166)"></stop><stop offset="0.9130434782608695" stop-color="rgb(34, 68, 153)"></stop><stop offset="1" stop-color="rgb(28, 49, 133)"></stop></linearGradient></defs><g transform="translate(45,10)"><g class="mark-group role-frame root"><g transform="translate(0,0)"><path class="background" d="M0.5,0.5h800v600h-800Z" style="fill: none; stroke: none;"></path><g><g class="mark-rect role-mark marks"><path d="M189.4736842105263,210h21.05263157894734v30h-21.05263157894734Z" style="fill: rgb(239, 249, 189);"></path><path d="M442.1052631578948,420h21.0526315789474v30h-21.0526315789474Z" style="fill: rgb(164, 219, 183);"></path><path d="M568.4210526315788,59.999999999999986h21.052631578947512v30.00000000000003h-21.052631578947512Z" style="fill: rgb(146, 212, 185);"></path><path d="M568.4210526315788,90.00000000000001h21.052631578947512v29.999999999999957h-21.052631578947512Z" style="fill: rgb(34, 92, 166);"></path><path d="M610.5263157894736,90.00000000000001h21.052631578947512v29.999999999999957h-21.052631578947512Z" style="fill: rgb(33, 118, 179);"></path><path d="M715.7894736842104,0h21.0526315789474v30.00000000000003h-21.0526315789474Z" style="fill: rgb(33, 131, 184);"></path><path d="M547.3684210526316,59.999999999999986h21.052631578947512v30.00000000000003h-21.052631578947512Z" style="fill: rgb(77, 184, 193);"></path><path d="M84.2105263157895,30.00000000000003h21.05263157894737v29.999999999999957h-21.05263157894737Z" style="fill: rgb(239, 249, 189);"></path><path d="M568.4210526315788,240h21.052631578947512v30h-21.052631578947512Z" style="fill: rgb(109, 198, 190);"></path><path d="M421.0526315789473,390h21.05263157894734v30h-21.05263157894734Z" style="fill: rgb(33, 131, 184);"></path><path d="M568.4210526315788,119.99999999999997h21.052631578947512v30.00000000000003h-21.052631578947512Z" style="fill: rgb(33, 104, 172);"></path><path d="M168.4210526315789,480h21.0526315789474v30h-21.0526315789474Z" style="fill: rgb(210, 237, 180);"></path><path d="M631.5789473684209,0h21.052631578947512v30.00000000000003h-21.052631578947512Z" style="fill: rgb(92, 191, 191);"></path><path d="M505.2631578947368,510h21.05263157894757v30h-21.05263157894757Z" style="fill: rgb(230, 246, 185);"></path><path d="M568.4210526315788,150h21.052631578947512v30.00000000000003h-21.052631578947512Z" style="fill: rgb(92, 191, 191);"></path><path d="M568.4210526315788,0h21.052631578947512v30.00000000000003h-21.052631578947512Z" style="fill: rgb(182, 226, 182);"></path><path d="M610.5263157894736,0h21.052631578947512v30.00000000000003h-21.052631578947512Z" style="fill: rgb(109, 198, 190);"></path><path d="M547.3684210526316,240h21.052631578947512v30h-21.052631578947512Z" style="fill: rgb(164, 219, 183);"></path><path d="M631.5789473684209,59.999999999999986h21.052631578947512v30.00000000000003h-21.052631578947512Z" style="fill: rgb(34, 92, 166);"></path><path d="M315.78947368421046,510h21.052631578947228v30h-21.052631578947228Z" style="fill: rgb(127, 205, 187);"></path><path d="M526.315789473684,300h21.052631578947512v30h-21.052631578947512Z" style="fill: rgb(53, 166, 193);"></path><path d="M526.315789473684,450h21.052631578947512v30h-21.052631578947512Z" style="fill: rgb(230, 246, 185);"></path><path d="M442.1052631578948,270h21.0526315789474v30h-21.0526315789474Z" style="fill: rgb(109, 198, 190);"></path><path d="M168.4210526315789,150h21.0526315789474v30.00000000000003h-21.0526315789474Z" style="fill: rgb(239, 249, 189);"></path><path d="M547.3684210526316,30.00000000000003h21.052631578947512v29.999999999999957h-21.052631578947512Z" style="fill: rgb(197, 232, 181);"></path><path d="M694.7368421052632,0h21.0526315789474v30.00000000000003h-21.0526315789474Z" style="fill: rgb(33, 104, 172);"></path><path d="M442.1052631578948,210h21.0526315789474v30h-21.0526315789474Z" style="fill: rgb(197, 232, 181);"></path><path d="M715.7894736842104,30.00000000000003h21.0526315789474v29.999999999999957h-21.0526315789474Z" style="fill: rgb(164, 219, 183);"></path><path d="M736.8421052631578,0h21.0526315789474v30.00000000000003h-21.0526315789474Z" style="fill: rgb(210, 237, 180);"></path><path d="M484.21052631578954,59.999999999999986h21.052631578947455v30.00000000000003h-21.052631578947455Z" style="fill: rgb(182, 226, 182);"></path><path d="M294.7368421052631,480h21.05263157894734v30h-21.05263157894734Z" style="fill: rgb(197, 232, 181);"></path><path d="M421.0526315789473,150h21.05263157894734v30.00000000000003h-21.05263157894734Z" style="fill: rgb(230, 246, 185);"></path><path d="M673.6842105263156,30.00000000000003h21.052631578947626v29.999999999999957h-21.052631578947626Z" style="fill: rgb(53, 166, 193);"></path><path d="M589.4736842105264,0h21.0526315789474v30.00000000000003h-21.0526315789474Z" style="fill: rgb(164, 219, 183);"></path><path d="M357.8947368421052,450h21.05263157894734v30h-21.05263157894734Z" style="fill: rgb(109, 198, 190);"></path><path d="M547.3684210526316,180.00000000000003h21.052631578947512v29.99999999999997h-21.052631578947512Z" style="fill: rgb(92, 191, 191);"></path><path d="M610.5263157894736,210h21.052631578947512v30h-21.052631578947512Z" style="fill: rgb(210, 237, 180);"></path><path d="M694.7368421052632,30.00000000000003h21.0526315789474v29.999999999999957h-21.0526315789474Z" style="fill: rgb(53, 166, 193);"></path><path d="M526.315789473684,360h21.052631578947512v30h-21.052631578947512Z" style="fill: rgb(109, 198, 190);"></path><path d="M505.2631578947368,90.00000000000001h21.05263157894757v29.999999999999957h-21.05263157894757Z" style="fill: rgb(146, 212, 185);"></path><path d="M421.0526315789473,270h21.05263157894734v30h-21.05263157894734Z" style="fill: rgb(127, 205, 187);"></path><path d="M442.1052631578948,90.00000000000001h21.0526315789474v29.999999999999957h-21.0526315789474Z" style="fill: rgb(222, 242, 181);"></path><path d="M673.6842105263156,0h21.052631578947626v30.00000000000003h-21.052631578947626Z" style="fill: rgb(28, 49, 133);"></path><path d="M189.4736842105263,30.00000000000003h21.05263157894734v29.999999999999957h-21.05263157894734Z" style="fill: rgb(239, 249, 189);"></path><path d="M168.4210526315789,450h21.0526315789474v30h-21.0526315789474Z" style="fill: rgb(230, 246, 185);"></path><path d="M357.8947368421052,360h21.05263157894734v30h-21.05263157894734Z" style="fill: rgb(146, 212, 185);"></path><path d="M336.84210526315786,330h21.0526315789474v30h-21.0526315789474Z" style="fill: rgb(230, 246, 185);"></path><path d="M589.4736842105264,90.00000000000001h21.0526315789474v29.999999999999957h-21.0526315789474Z" style="fill: rgb(34, 92, 166);"></path><path d="M463.157894736842,300h21.052631578947512v30h-21.052631578947512Z" style="fill: rgb(92, 191, 191);"></path><path d="M357.8947368421052,510h21.05263157894734v30h-21.05263157894734Z" style="fill: rgb(109, 198, 190);"></path><path d="M421.0526315789473,330h21.05263157894734v30h-21.05263157894734Z" style="fill: rgb(53, 166, 193);"></path><path d="M652.6315789473684,0h21.05263157894717v30.00000000000003h-21.05263157894717Z" style="fill: rgb(31, 59, 143);"></path><path d="M547.3684210526316,210h21.052631578947512v30h-21.052631578947512Z" style="fill: rgb(64, 175, 194);"></path><path d="M484.21052631578954,330h21.052631578947455v30h-21.052631578947455Z" style="fill: rgb(77, 184, 193);"></path><path d="M652.6315789473684,90.00000000000001h21.05263157894717v29.999999999999957h-21.05263157894717Z" style="fill: rgb(92, 191, 191);"></path><path d="M610.5263157894736,59.999999999999986h21.052631578947512v30.00000000000003h-21.052631578947512Z" style="fill: rgb(33, 131, 184);"></path><path d="M442.1052631578948,240h21.0526315789474v30h-21.0526315789474Z" style="fill: rgb(146, 212, 185);"></path><path d="M589.4736842105264,30.00000000000003h21.0526315789474v29.999999999999957h-21.0526315789474Z" style="fill: rgb(109, 198, 190);"></path><path d="M631.5789473684209,150h21.052631578947512v30.00000000000003h-21.052631578947512Z" style="fill: rgb(164, 219, 183);"></path><path d="M442.1052631578948,360h21.0526315789474v30h-21.0526315789474Z" style="fill: rgb(53, 166, 193);"></path><path d="M589.4736842105264,59.999999999999986h21.0526315789474v30.00000000000003h-21.0526315789474Z" style="fill: rgb(34, 80, 160);"></path><path d="M526.315789473684,180.00000000000003h21.052631578947512v29.99999999999997h-21.052631578947512Z" style="fill: rgb(38, 143, 188);"></path><path d="M252.63157894736835,240h21.052631578947313v30h-21.052631578947313Z" style="fill: rgb(239, 249, 189);"></path><path d="M589.4736842105264,119.99999999999997h21.0526315789474v30.00000000000003h-21.0526315789474Z" style="fill: rgb(53, 166, 193);"></path><path d="M505.2631578947368,30.00000000000003h21.05263157894757v29.999999999999957h-21.05263157894757Z" style="fill: rgb(239, 249, 189);"></path><path d="M484.21052631578954,210h21.052631578947455v30h-21.052631578947455Z" style="fill: rgb(92, 191, 191);"></path><path d="M715.7894736842104,119.99999999999997h21.0526315789474v30.00000000000003h-21.0526315789474Z" style="fill: rgb(210, 237, 180);"></path><path d="M652.6315789473684,59.999999999999986h21.05263157894717v30.00000000000003h-21.05263157894717Z" style="fill: rgb(33, 118, 179);"></path><path d="M526.315789473684,90.00000000000001h21.052631578947512v29.999999999999957h-21.052631578947512Z" style="fill: rgb(77, 184, 193);"></path><path d="M589.4736842105264,180.00000000000003h21.0526315789474v29.99999999999997h-21.0526315789474Z" style="fill: rgb(53, 166, 193);"></path><path d="M547.3684210526316,119.99999999999997h21.052631578947512v30.00000000000003h-21.052631578947512Z" style="fill: rgb(34, 92, 166);"></path><path d="M399.99999999999994,330h21.05263157894734v30h-21.05263157894734Z" style="fill: rgb(182, 226, 182);"></path><path d="M378.94736842105254,390h21.0526315789474v30h-21.0526315789474Z" style="fill: rgb(109, 198, 190);"></path><path d="M421.0526315789473,180.00000000000003h21.05263157894734v29.99999999999997h-21.05263157894734Z" style="fill: rgb(182, 226, 182);"></path><path d="M568.4210526315788,180.00000000000003h21.052631578947512v29.99999999999997h-21.052631578947512Z" style="fill: rgb(53, 166, 193);"></path><path d="M610.5263157894736,30.00000000000003h21.052631578947512v29.999999999999957h-21.052631578947512Z" style="fill: rgb(33, 104, 172);"></path><path d="M673.6842105263156,390h21.052631578947626v30h-21.052631578947626Z" style="fill: rgb(239, 249, 189);"></path><path d="M484.21052631578954,150h21.052631578947455v30.00000000000003h-21.052631578947455Z" style="fill: rgb(109, 198, 190);"></path><path d="M568.4210526315788,210h21.052631578947512v30h-21.052631578947512Z" style="fill: rgb(38, 143, 188);"></path><path d="M378.94736842105254,510h21.0526315789474v30h-21.0526315789474Z" style="fill: rgb(127, 205, 187);"></path><path d="M673.6842105263156,59.999999999999986h21.052631578947626v30.00000000000003h-21.052631578947626Z" style="fill: rgb(164, 219, 183);"></path><path d="M505.2631578947368,119.99999999999997h21.05263157894757v30.00000000000003h-21.05263157894757Z" style="fill: rgb(127, 205, 187);"></path><path d="M547.3684210526316,330h21.052631578947512v30h-21.052631578947512Z" style="fill: rgb(92, 191, 191);"></path><path d="M484.21052631578954,90.00000000000001h21.052631578947455v29.999999999999957h-21.052631578947455Z" style="fill: rgb(164, 219, 183);"></path><path d="M442.1052631578948,180.00000000000003h21.0526315789474v29.99999999999997h-21.0526315789474Z" style="fill: rgb(197, 232, 181);"></path><path d="M294.7368421052631,150h21.05263157894734v30.00000000000003h-21.05263157894734Z" style="fill: rgb(239, 249, 189);"></path><path d="M357.8947368421052,30.00000000000003h21.05263157894734v29.999999999999957h-21.05263157894734Z" style="fill: rgb(239, 249, 189);"></path><path d="M315.78947368421046,450h21.052631578947228v30h-21.052631578947228Z" style="fill: rgb(210, 237, 180);"></path><path d="M399.99999999999994,420h21.05263157894734v30h-21.05263157894734Z" style="fill: rgb(43, 156, 191);"></path><path d="M336.84210526315786,510h21.0526315789474v30h-21.0526315789474Z" style="fill: rgb(43, 156, 191);"></path><path d="M505.2631578947368,150h21.05263157894757v30.00000000000003h-21.05263157894757Z" style="fill: rgb(146, 212, 185);"></path><path d="M442.1052631578948,330h21.0526315789474v30h-21.0526315789474Z" style="fill: rgb(64, 175, 194);"></path><path d="M505.2631578947368,59.999999999999986h21.05263157894757v30.00000000000003h-21.05263157894757Z" style="fill: rgb(210, 237, 180);"></path><path d="M505.2631578947368,180.00000000000003h21.05263157894757v29.99999999999997h-21.05263157894757Z" style="fill: rgb(164, 219, 183);"></path><path d="M757.8947368421052,0h21.0526315789474v30.00000000000003h-21.0526315789474Z" style="fill: rgb(197, 232, 181);"></path><path d="M673.6842105263156,90.00000000000001h21.052631578947626v29.999999999999957h-21.052631578947626Z" style="fill: rgb(109, 198, 190);"></path><path d="M463.157894736842,240h21.052631578947512v30h-21.052631578947512Z" style="fill: rgb(77, 184, 193);"></path><path d="M378.94736842105254,300h21.0526315789474v30h-21.0526315789474Z" style="fill: rgb(230, 246, 185);"></path><path d="M442.1052631578948,30.00000000000003h21.0526315789474v29.999999999999957h-21.0526315789474Z" style="fill: rgb(239, 249, 189);"></path><path d="M526.315789473684,59.999999999999986h21.052631578947512v30.00000000000003h-21.052631578947512Z" style="fill: rgb(182, 226, 182);"></path><path d="M421.0526315789473,420h21.05263157894734v30h-21.05263157894734Z" style="fill: rgb(38, 143, 188);"></path><path d="M399.99999999999994,450h21.05263157894734v30h-21.05263157894734Z" style="fill: rgb(164, 219, 183);"></path><path d="M526.315789473684,240h21.052631578947512v30h-21.052631578947512Z" style="fill: rgb(34, 68, 153);"></path><path d="M463.157894736842,270h21.052631578947512v30h-21.052631578947512Z" style="fill: rgb(38, 143, 188);"></path><path d="M399.99999999999994,30.00000000000003h21.05263157894734v29.999999999999957h-21.05263157894734Z" style="fill: rgb(230, 246, 185);"></path><path d="M484.21052631578954,270h21.052631578947455v30h-21.052631578947455Z" style="fill: rgb(34, 80, 160);"></path><path d="M526.315789473684,150h21.052631578947512v30.00000000000003h-21.052631578947512Z" style="fill: rgb(33, 131, 184);"></path><path d="M631.5789473684209,30.00000000000003h21.052631578947512v29.999999999999957h-21.052631578947512Z" style="fill: rgb(34, 92, 166);"></path><path d="M673.6842105263156,119.99999999999997h21.052631578947626v30.00000000000003h-21.052631578947626Z" style="fill: rgb(210, 237, 180);"></path><path d="M526.315789473684,210h21.052631578947512v30h-21.052631578947512Z" style="fill: rgb(43, 156, 191);"></path><path d="M315.78947368421046,540h21.052631578947228v30h-21.052631578947228Z" style="fill: rgb(53, 166, 193);"></path><path d="M294.7368421052631,119.99999999999997h21.05263157894734v30.00000000000003h-21.05263157894734Z" style="fill: rgb(239, 249, 189);"></path><path d="M463.157894736842,90.00000000000001h21.052631578947512v29.999999999999957h-21.052631578947512Z" style="fill: rgb(239, 249, 189);"></path><path d="M547.3684210526316,90.00000000000001h21.052631578947512v29.999999999999957h-21.052631578947512Z" style="fill: rgb(34, 68, 153);"></path><path d="M610.5263157894736,119.99999999999997h21.052631578947512v30.00000000000003h-21.052631578947512Z" style="fill: rgb(64, 175, 194);"></path><path d="M505.2631578947368,210h21.05263157894757v30h-21.05263157894757Z" style="fill: rgb(31, 59, 143);"></path><path d="M378.94736842105254,240h21.0526315789474v30h-21.0526315789474Z" style="fill: rgb(230, 246, 185);"></path><path d="M463.157894736842,119.99999999999997h21.052631578947512v30.00000000000003h-21.052631578947512Z" style="fill: rgb(197, 232, 181);"></path><path d="M442.1052631578948,390h21.0526315789474v30h-21.0526315789474Z" style="fill: rgb(64, 175, 194);"></path><path d="M463.157894736842,210h21.052631578947512v30h-21.052631578947512Z" style="fill: rgb(38, 143, 188);"></path><path d="M547.3684210526316,0h21.052631578947512v30.00000000000003h-21.052631578947512Z" style="fill: rgb(230, 246, 185);"></path><path d="M421.0526315789473,210h21.05263157894734v30h-21.05263157894734Z" style="fill: rgb(197, 232, 181);"></path><path d="M399.99999999999994,510h21.05263157894734v30h-21.05263157894734Z" style="fill: rgb(77, 184, 193);"></path><path d="M526.315789473684,0h21.052631578947512v30.00000000000003h-21.052631578947512Z" style="fill: rgb(197, 232, 181);"></path><path d="M399.99999999999994,390h21.05263157894734v30h-21.05263157894734Z" style="fill: rgb(164, 219, 183);"></path><path d="M421.0526315789473,540h21.05263157894734v30h-21.05263157894734Z" style="fill: rgb(222, 242, 181);"></path><path d="M526.315789473684,510h21.052631578947512v30h-21.052631578947512Z" style="fill: rgb(230, 246, 185);"></path><path d="M631.5789473684209,90.00000000000001h21.052631578947512v29.999999999999957h-21.052631578947512Z" style="fill: rgb(53, 166, 193);"></path><path d="M652.6315789473684,30.00000000000003h21.05263157894717v29.999999999999957h-21.05263157894717Z" style="fill: rgb(33, 131, 184);"></path><path d="M505.2631578947368,270h21.05263157894757v30h-21.05263157894757Z" style="fill: rgb(43, 156, 191);"></path><path d="M168.4210526315789,180.00000000000003h21.0526315789474v29.99999999999997h-21.0526315789474Z" style="fill: rgb(230, 246, 185);"></path><path d="M736.8421052631578,150h21.0526315789474v30.00000000000003h-21.0526315789474Z" style="fill: rgb(239, 249, 189);"></path><path d="M399.99999999999994,360h21.05263157894734v30h-21.05263157894734Z" style="fill: rgb(92, 191, 191);"></path><path d="M421.0526315789473,300h21.05263157894734v30h-21.05263157894734Z" style="fill: rgb(210, 237, 180);"></path><path d="M399.99999999999994,119.99999999999997h21.05263157894734v30.00000000000003h-21.05263157894734Z" style="fill: rgb(230, 246, 185);"></path><path d="M547.3684210526316,150h21.052631578947512v30.00000000000003h-21.052631578947512Z" style="fill: rgb(34, 92, 166);"></path><path d="M526.315789473684,270h21.052631578947512v30h-21.052631578947512Z" style="fill: rgb(109, 198, 190);"></path><path d="M800,0h21.0526315789474v30.00000000000003h-21.0526315789474Z" style="fill: rgb(239, 249, 189);"></path><path d="M547.3684210526316,270h21.052631578947512v30h-21.052631578947512Z" style="fill: rgb(109, 198, 190);"></path><path d="M336.84210526315786,390h21.0526315789474v30h-21.0526315789474Z" style="fill: rgb(222, 242, 181);"></path><path d="M694.7368421052632,59.999999999999986h21.0526315789474v30.00000000000003h-21.0526315789474Z" style="fill: rgb(164, 219, 183);"></path><path d="M484.21052631578954,360h21.052631578947455v30h-21.052631578947455Z" style="fill: rgb(109, 198, 190);"></path><path d="M378.94736842105254,420h21.0526315789474v30h-21.0526315789474Z" style="fill: rgb(92, 191, 191);"></path><path d="M336.84210526315786,420h21.0526315789474v30h-21.0526315789474Z" style="fill: rgb(146, 212, 185);"></path><path d="M421.0526315789473,450h21.05263157894734v30h-21.05263157894734Z" style="fill: rgb(92, 191, 191);"></path><path d="M463.157894736842,30.00000000000003h21.052631578947512v29.999999999999957h-21.052631578947512Z" style="fill: rgb(222, 242, 181);"></path><path d="M442.1052631578948,450h21.0526315789474v30h-21.0526315789474Z" style="fill: rgb(210, 237, 180);"></path><path d="M568.4210526315788,300h21.052631578947512v30h-21.052631578947512Z" style="fill: rgb(210, 237, 180);"></path><path d="M484.21052631578954,450h21.052631578947455v30h-21.052631578947455Z" style="fill: rgb(127, 205, 187);"></path><path d="M273.6842105263157,420h21.0526315789474v30h-21.0526315789474Z" style="fill: rgb(222, 242, 181);"></path><path d="M463.157894736842,420h21.052631578947512v30h-21.052631578947512Z" style="fill: rgb(109, 198, 190);"></path><path d="M610.5263157894736,240h21.052631578947512v30h-21.052631578947512Z" style="fill: rgb(222, 242, 181);"></path><path d="M442.1052631578948,300h21.0526315789474v30h-21.0526315789474Z" style="fill: rgb(64, 175, 194);"></path><path d="M189.4736842105263,119.99999999999997h21.05263157894734v30.00000000000003h-21.05263157894734Z" style="fill: rgb(239, 249, 189);"></path><path d="M378.94736842105254,450h21.0526315789474v30h-21.0526315789474Z" style="fill: rgb(64, 175, 194);"></path><path d="M252.63157894736835,480h21.052631578947313v30h-21.052631578947313Z" style="fill: rgb(222, 242, 181);"></path><path d="M736.8421052631578,30.00000000000003h21.0526315789474v29.999999999999957h-21.0526315789474Z" style="fill: rgb(239, 249, 189);"></path><path d="M252.63157894736835,450h21.052631578947313v30h-21.052631578947313Z" style="fill: rgb(230, 246, 185);"></path><path d="M357.8947368421052,420h21.05263157894734v30h-21.05263157894734Z" style="fill: rgb(164, 219, 183);"></path><path d="M378.94736842105254,480h21.0526315789474v30h-21.0526315789474Z" style="fill: rgb(64, 175, 194);"></path><path d="M336.84210526315786,480h21.0526315789474v30h-21.0526315789474Z" style="fill: rgb(77, 184, 193);"></path><path d="M231.578947368421,510h21.05263157894734v30h-21.05263157894734Z" style="fill: rgb(210, 237, 180);"></path><path d="M421.0526315789473,360h21.05263157894734v30h-21.05263157894734Z" style="fill: rgb(182, 226, 182);"></path><path d="M505.2631578947368,300h21.05263157894757v30h-21.05263157894757Z" style="fill: rgb(77, 184, 193);"></path><path d="M421.0526315789473,240h21.05263157894734v30h-21.05263157894734Z" style="fill: rgb(222, 242, 181);"></path><path d="M631.5789473684209,300h21.052631578947512v30h-21.052631578947512Z" style="fill: rgb(222, 242, 181);"></path><path d="M631.5789473684209,180.00000000000003h21.052631578947512v29.99999999999997h-21.052631578947512Z" style="fill: rgb(210, 237, 180);"></path><path d="M463.157894736842,0h21.052631578947512v30.00000000000003h-21.052631578947512Z" style="fill: rgb(239, 249, 189);"></path><path d="M336.84210526315786,300h21.0526315789474v30h-21.0526315789474Z" style="fill: rgb(239, 249, 189);"></path><path d="M526.315789473684,30.00000000000003h21.052631578947512v29.999999999999957h-21.052631578947512Z" style="fill: rgb(222, 242, 181);"></path><path d="M505.2631578947368,240h21.05263157894757v30h-21.05263157894757Z" style="fill: rgb(92, 191, 191);"></path><path d="M357.8947368421052,300h21.05263157894734v30h-21.05263157894734Z" style="fill: rgb(222, 242, 181);"></path><path d="M526.315789473684,119.99999999999997h21.052631578947512v30.00000000000003h-21.052631578947512Z" style="fill: rgb(127, 205, 187);"></path><path d="M610.5263157894736,180.00000000000003h21.052631578947512v29.99999999999997h-21.052631578947512Z" style="fill: rgb(182, 226, 182);"></path><path d="M589.4736842105264,210h21.0526315789474v30h-21.0526315789474Z" style="fill: rgb(77, 184, 193);"></path><path d="M442.1052631578948,540h21.0526315789474v30h-21.0526315789474Z" style="fill: rgb(146, 212, 185);"></path><path d="M357.8947368421052,390h21.05263157894734v30h-21.05263157894734Z" style="fill: rgb(164, 219, 183);"></path><path d="M652.6315789473684,180.00000000000003h21.05263157894717v29.99999999999997h-21.05263157894717Z" style="fill: rgb(182, 226, 182);"></path><path d="M484.21052631578954,240h21.052631578947455v30h-21.052631578947455Z" style="fill: rgb(164, 219, 183);"></path><path d="M568.4210526315788,270h21.052631578947512v30h-21.052631578947512Z" style="fill: rgb(164, 219, 183);"></path><path d="M526.315789473684,330h21.052631578947512v30h-21.052631578947512Z" style="fill: rgb(43, 156, 191);"></path><path d="M378.94736842105254,0h21.0526315789474v30.00000000000003h-21.0526315789474Z" style="fill: rgb(239, 249, 189);"></path><path d="M484.21052631578954,0h21.052631578947455v30.00000000000003h-21.052631578947455Z" style="fill: rgb(239, 249, 189);"></path><path d="M463.157894736842,180.00000000000003h21.052631578947512v29.99999999999997h-21.052631578947512Z" style="fill: rgb(164, 219, 183);"></path><path d="M378.94736842105254,270h21.0526315789474v30h-21.0526315789474Z" style="fill: rgb(197, 232, 181);"></path><path d="M463.157894736842,150h21.052631578947512v30.00000000000003h-21.052631578947512Z" style="fill: rgb(182, 226, 182);"></path><path d="M399.99999999999994,90.00000000000001h21.05263157894734v29.999999999999957h-21.05263157894734Z" style="fill: rgb(230, 246, 185);"></path><path d="M168.4210526315789,540h21.0526315789474v30h-21.0526315789474Z" style="fill: rgb(210, 237, 180);"></path><path d="M568.4210526315788,30.00000000000003h21.052631578947512v29.999999999999957h-21.052631578947512Z" style="fill: rgb(146, 212, 185);"></path><path d="M463.157894736842,510h21.052631578947512v30h-21.052631578947512Z" style="fill: rgb(210, 237, 180);"></path><path d="M484.21052631578954,300h21.052631578947455v30h-21.052631578947455Z" style="fill: rgb(43, 156, 191);"></path><path d="M315.78947368421046,360h21.052631578947228v30h-21.052631578947228Z" style="fill: rgb(197, 232, 181);"></path><path d="M484.21052631578954,420h21.052631578947455v30h-21.052631578947455Z" style="fill: rgb(77, 184, 193);"></path><path d="M105.26315789473682,30.00000000000003h21.052631578947384v29.999999999999957h-21.052631578947384Z" style="fill: rgb(230, 246, 185);"></path><path d="M336.84210526315786,240h21.0526315789474v30h-21.0526315789474Z" style="fill: rgb(239, 249, 189);"></path><path d="M463.157894736842,450h21.052631578947512v30h-21.052631578947512Z" style="fill: rgb(92, 191, 191);"></path><path d="M652.6315789473684,119.99999999999997h21.05263157894717v30.00000000000003h-21.05263157894717Z" style="fill: rgb(109, 198, 190);"></path><path d="M315.78947368421046,420h21.052631578947228v30h-21.052631578947228Z" style="fill: rgb(197, 232, 181);"></path><path d="M757.8947368421052,30.00000000000003h21.0526315789474v29.999999999999957h-21.0526315789474Z" style="fill: rgb(230, 246, 185);"></path><path d="M505.2631578947368,450h21.05263157894757v30h-21.05263157894757Z" style="fill: rgb(197, 232, 181);"></path><path d="M442.1052631578948,59.999999999999986h21.0526315789474v30.00000000000003h-21.0526315789474Z" style="fill: rgb(230, 246, 185);"></path><path d="M505.2631578947368,330h21.05263157894757v30h-21.05263157894757Z" style="fill: rgb(53, 166, 193);"></path><path d="M294.7368421052631,450h21.05263157894734v30h-21.05263157894734Z" style="fill: rgb(182, 226, 182);"></path><path d="M399.99999999999994,210h21.05263157894734v30h-21.05263157894734Z" style="fill: rgb(230, 246, 185);"></path><path d="M336.84210526315786,360h21.0526315789474v30h-21.0526315789474Z" style="fill: rgb(222, 242, 181);"></path><path d="M231.578947368421,210h21.05263157894734v30h-21.05263157894734Z" style="fill: rgb(239, 249, 189);"></path><path d="M421.0526315789473,510h21.05263157894734v30h-21.05263157894734Z" style="fill: rgb(53, 166, 193);"></path><path d="M484.21052631578954,30.00000000000003h21.052631578947455v29.999999999999957h-21.052631578947455Z" style="fill: rgb(222, 242, 181);"></path><path d="M105.26315789473682,510h21.052631578947384v30h-21.052631578947384Z" style="fill: rgb(222, 242, 181);"></path><path d="M273.6842105263157,360h21.0526315789474v30h-21.0526315789474Z" style="fill: rgb(230, 246, 185);"></path><path d="M715.7894736842104,59.999999999999986h21.0526315789474v30.00000000000003h-21.0526315789474Z" style="fill: rgb(230, 246, 185);"></path><path d="M210.52631578947364,480h21.05263157894737v30h-21.05263157894737Z" style="fill: rgb(230, 246, 185);"></path><path d="M252.63157894736835,510h21.052631578947313v30h-21.052631578947313Z" style="fill: rgb(222, 242, 181);"></path><path d="M800,59.999999999999986h21.0526315789474v30.00000000000003h-21.0526315789474Z" style="fill: rgb(239, 249, 189);"></path><path d="M315.78947368421046,480h21.052631578947228v30h-21.052631578947228Z" style="fill: rgb(77, 184, 193);"></path><path d="M589.4736842105264,150h21.0526315789474v30.00000000000003h-21.0526315789474Z" style="fill: rgb(64, 175, 194);"></path><path d="M736.8421052631578,59.999999999999986h21.0526315789474v30.00000000000003h-21.0526315789474Z" style="fill: rgb(222, 242, 181);"></path><path d="M421.0526315789473,0h21.05263157894734v30.00000000000003h-21.05263157894734Z" style="fill: rgb(230, 246, 185);"></path><path d="M336.84210526315786,540h21.0526315789474v30h-21.0526315789474Z" style="fill: rgb(197, 232, 181);"></path><path d="M399.99999999999994,480h21.05263157894734v30h-21.05263157894734Z" style="fill: rgb(109, 198, 190);"></path><path d="M336.84210526315786,30.00000000000003h21.0526315789474v29.999999999999957h-21.0526315789474Z" style="fill: rgb(239, 249, 189);"></path><path d="M336.84210526315786,570h21.0526315789474v30h-21.0526315789474Z" style="fill: rgb(210, 237, 180);"></path><path d="M168.4210526315789,510h21.0526315789474v30h-21.0526315789474Z" style="fill: rgb(222, 242, 181);"></path><path d="M357.8947368421052,330h21.05263157894734v30h-21.05263157894734Z" style="fill: rgb(222, 242, 181);"></path><path d="M399.99999999999994,300h21.05263157894734v30h-21.05263157894734Z" style="fill: rgb(164, 219, 183);"></path><path d="M126.3157894736842,510h21.052631578947384v30h-21.052631578947384Z" style="fill: rgb(239, 249, 189);"></path><path d="M378.94736842105254,360h21.0526315789474v30h-21.0526315789474Z" style="fill: rgb(164, 219, 183);"></path><path d="M315.78947368421046,330h21.052631578947228v30h-21.052631578947228Z" style="fill: rgb(210, 237, 180);"></path><path d="M631.5789473684209,119.99999999999997h21.052631578947512v30.00000000000003h-21.052631578947512Z" style="fill: rgb(182, 226, 182);"></path><path d="M273.6842105263157,390h21.0526315789474v30h-21.0526315789474Z" style="fill: rgb(239, 249, 189);"></path><path d="M126.3157894736842,180.00000000000003h21.052631578947384v29.99999999999997h-21.052631578947384Z" style="fill: rgb(230, 246, 185);"></path><path d="M526.315789473684,390h21.052631578947512v30h-21.052631578947512Z" style="fill: rgb(197, 232, 181);"></path><path d="M484.21052631578954,180.00000000000003h21.052631578947455v29.99999999999997h-21.052631578947455Z" style="fill: rgb(92, 191, 191);"></path><path d="M273.6842105263157,510h21.0526315789474v30h-21.0526315789474Z" style="fill: rgb(127, 205, 187);"></path><path d="M463.157894736842,360h21.052631578947512v30h-21.052631578947512Z" style="fill: rgb(109, 198, 190);"></path><path d="M463.157894736842,480h21.052631578947512v30h-21.052631578947512Z" style="fill: rgb(64, 175, 194);"></path><path d="M294.7368421052631,360h21.05263157894734v30h-21.05263157894734Z" style="fill: rgb(222, 242, 181);"></path><path d="M294.7368421052631,390h21.05263157894734v30h-21.05263157894734Z" style="fill: rgb(239, 249, 189);"></path><path d="M484.21052631578954,480h21.052631578947455v30h-21.052631578947455Z" style="fill: rgb(230, 246, 185);"></path><path d="M463.157894736842,390h21.052631578947512v30h-21.052631578947512Z" style="fill: rgb(109, 198, 190);"></path><path d="M421.0526315789473,480h21.05263157894734v30h-21.05263157894734Z" style="fill: rgb(146, 212, 185);"></path><path d="M652.6315789473684,210h21.05263157894717v30h-21.05263157894717Z" style="fill: rgb(210, 237, 180);"></path><path d="M631.5789473684209,420h21.052631578947512v30h-21.052631578947512Z" style="fill: rgb(239, 249, 189);"></path><path d="M357.8947368421052,570h21.05263157894734v30h-21.05263157894734Z" style="fill: rgb(230, 246, 185);"></path><path d="M673.6842105263156,510h21.052631578947626v30h-21.052631578947626Z" style="fill: rgb(239, 249, 189);"></path><path d="M547.3684210526316,450h21.052631578947512v30h-21.052631578947512Z" style="fill: rgb(230, 246, 185);"></path><path d="M315.78947368421046,300h21.052631578947228v30h-21.052631578947228Z" style="fill: rgb(239, 249, 189);"></path><path d="M484.21052631578954,119.99999999999997h21.052631578947455v30.00000000000003h-21.052631578947455Z" style="fill: rgb(230, 246, 185);"></path><path d="M63.1578947368421,570h21.05263157894739v30h-21.05263157894739Z" style="fill: rgb(222, 242, 181);"></path><path d="M294.7368421052631,510h21.05263157894734v30h-21.05263157894734Z" style="fill: rgb(182, 226, 182);"></path><path d="M736.8421052631578,90.00000000000001h21.0526315789474v29.999999999999957h-21.0526315789474Z" style="fill: rgb(230, 246, 185);"></path><path d="M463.157894736842,330h21.052631578947512v30h-21.052631578947512Z" style="fill: rgb(77, 184, 193);"></path><path d="M315.78947368421046,390h21.052631578947228v30h-21.052631578947228Z" style="fill: rgb(222, 242, 181);"></path><path d="M315.78947368421046,270h21.052631578947228v30h-21.052631578947228Z" style="fill: rgb(239, 249, 189);"></path><path d="M484.21052631578954,390h21.052631578947455v30h-21.052631578947455Z" style="fill: rgb(210, 237, 180);"></path><path d="M589.4736842105264,300h21.0526315789474v30h-21.0526315789474Z" style="fill: rgb(230, 246, 185);"></path><path d="M315.78947368421046,210h21.052631578947228v30h-21.052631578947228Z" style="fill: rgb(239, 249, 189);"></path><path d="M547.3684210526316,300h21.052631578947512v30h-21.052631578947512Z" style="fill: rgb(109, 198, 190);"></path><path d="M336.84210526315786,450h21.0526315789474v30h-21.0526315789474Z" style="fill: rgb(164, 219, 183);"></path><path d="M610.5263157894736,360h21.052631578947512v30h-21.052631578947512Z" style="fill: rgb(239, 249, 189);"></path><path d="M610.5263157894736,270h21.052631578947512v30h-21.052631578947512Z" style="fill: rgb(210, 237, 180);"></path><path d="M694.7368421052632,90.00000000000001h21.0526315789474v29.999999999999957h-21.0526315789474Z" style="fill: rgb(210, 237, 180);"></path><path d="M189.4736842105263,480h21.05263157894734v30h-21.05263157894734Z" style="fill: rgb(222, 242, 181);"></path><path d="M378.94736842105254,540h21.0526315789474v30h-21.0526315789474Z" style="fill: rgb(197, 232, 181);"></path><path d="M399.99999999999994,540h21.05263157894734v30h-21.05263157894734Z" style="fill: rgb(230, 246, 185);"></path><path d="M231.578947368421,540h21.05263157894734v30h-21.05263157894734Z" style="fill: rgb(230, 246, 185);"></path><path d="M673.6842105263156,150h21.052631578947626v30.00000000000003h-21.052631578947626Z" style="fill: rgb(239, 249, 189);"></path><path d="M589.4736842105264,270h21.0526315789474v30h-21.0526315789474Z" style="fill: rgb(222, 242, 181);"></path><path d="M673.6842105263156,210h21.052631578947626v30h-21.052631578947626Z" style="fill: rgb(239, 249, 189);"></path><path d="M378.94736842105254,119.99999999999997h21.0526315789474v30.00000000000003h-21.0526315789474Z" style="fill: rgb(239, 249, 189);"></path><path d="M294.7368421052631,540h21.05263157894734v30h-21.05263157894734Z" style="fill: rgb(210, 237, 180);"></path><path d="M378.94736842105254,330h21.0526315789474v30h-21.0526315789474Z" style="fill: rgb(182, 226, 182);"></path><path d="M694.7368421052632,119.99999999999997h21.0526315789474v30.00000000000003h-21.0526315789474Z" style="fill: rgb(222, 242, 181);"></path><path d="M505.2631578947368,360h21.05263157894757v30h-21.05263157894757Z" style="fill: rgb(182, 226, 182);"></path><path d="M273.6842105263157,480h21.0526315789474v30h-21.0526315789474Z" style="fill: rgb(230, 246, 185);"></path><path d="M252.63157894736835,540h21.052631578947313v30h-21.052631578947313Z" style="fill: rgb(182, 226, 182);"></path><path d="M652.6315789473684,480h21.05263157894717v30h-21.05263157894717Z" style="fill: rgb(239, 249, 189);"></path><path d="M231.578947368421,450h21.05263157894734v30h-21.05263157894734Z" style="fill: rgb(230, 246, 185);"></path><path d="M273.6842105263157,540h21.0526315789474v30h-21.0526315789474Z" style="fill: rgb(197, 232, 181);"></path><path d="M399.99999999999994,270h21.05263157894734v30h-21.05263157894734Z" style="fill: rgb(210, 237, 180);"></path><path d="M484.21052631578954,510h21.052631578947455v30h-21.052631578947455Z" style="fill: rgb(230, 246, 185);"></path><path d="M126.3157894736842,210h21.052631578947384v30h-21.052631578947384Z" style="fill: rgb(239, 249, 189);"></path><path d="M652.6315789473684,390h21.05263157894717v30h-21.05263157894717Z" style="fill: rgb(239, 249, 189);"></path><path d="M189.4736842105263,510h21.05263157894734v30h-21.05263157894734Z" style="fill: rgb(230, 246, 185);"></path><path d="M610.5263157894736,150h21.052631578947512v30.00000000000003h-21.052631578947512Z" style="fill: rgb(197, 232, 181);"></path><path d="M231.578947368421,420h21.05263157894734v30h-21.05263157894734Z" style="fill: rgb(230, 246, 185);"></path><path d="M399.99999999999994,180.00000000000003h21.05263157894734v29.99999999999997h-21.05263157894734Z" style="fill: rgb(239, 249, 189);"></path><path d="M547.3684210526316,390h21.052631578947512v30h-21.052631578947512Z" style="fill: rgb(222, 242, 181);"></path><path d="M42.10526315789472,510h21.052631578947384v30h-21.052631578947384Z" style="fill: rgb(239, 249, 189);"></path><path d="M568.4210526315788,390h21.052631578947512v30h-21.052631578947512Z" style="fill: rgb(239, 249, 189);"></path><path d="M252.63157894736835,570h21.052631578947313v30h-21.052631578947313Z" style="fill: rgb(230, 246, 185);"></path><path d="M631.5789473684209,210h21.052631578947512v30h-21.052631578947512Z" style="fill: rgb(197, 232, 181);"></path><path d="M273.6842105263157,570h21.0526315789474v30h-21.0526315789474Z" style="fill: rgb(239, 249, 189);"></path><path d="M0,570h21.05263157894736v30h-21.05263157894736Z" style="fill: rgb(230, 246, 185);"></path><path d="M84.2105263157895,570h21.05263157894737v30h-21.05263157894737Z" style="fill: rgb(230, 246, 185);"></path><path d="M105.26315789473682,540h21.052631578947384v30h-21.052631578947384Z" style="fill: rgb(230, 246, 185);"></path><path d="M568.4210526315788,420h21.052631578947512v30h-21.052631578947512Z" style="fill: rgb(222, 242, 181);"></path><path d="M442.1052631578948,480h21.0526315789474v30h-21.0526315789474Z" style="fill: rgb(127, 205, 187);"></path><path d="M189.4736842105263,450h21.05263157894734v30h-21.05263157894734Z" style="fill: rgb(222, 242, 181);"></path><path d="M378.94736842105254,570h21.0526315789474v30h-21.0526315789474Z" style="fill: rgb(230, 246, 185);"></path><path d="M378.94736842105254,90.00000000000001h21.0526315789474v29.999999999999957h-21.0526315789474Z" style="fill: rgb(239, 249, 189);"></path><path d="M147.36842105263156,570h21.05263157894734v30h-21.05263157894734Z" style="fill: rgb(239, 249, 189);"></path><path d="M547.3684210526316,510h21.052631578947512v30h-21.052631578947512Z" style="fill: rgb(222, 242, 181);"></path><path d="M357.8947368421052,210h21.05263157894734v30h-21.05263157894734Z" style="fill: rgb(230, 246, 185);"></path><path d="M210.52631578947364,510h21.05263157894737v30h-21.05263157894737Z" style="fill: rgb(222, 242, 181);"></path><path d="M505.2631578947368,420h21.05263157894757v30h-21.05263157894757Z" style="fill: rgb(197, 232, 181);"></path><path d="M357.8947368421052,480h21.05263157894734v30h-21.05263157894734Z" style="fill: rgb(197, 232, 181);"></path><path d="M294.7368421052631,570h21.05263157894734v30h-21.05263157894734Z" style="fill: rgb(239, 249, 189);"></path><path d="M526.315789473684,420h21.052631578947512v30h-21.052631578947512Z" style="fill: rgb(222, 242, 181);"></path><path d="M442.1052631578948,119.99999999999997h21.0526315789474v30.00000000000003h-21.0526315789474Z" style="fill: rgb(239, 249, 189);"></path><path d="M294.7368421052631,420h21.05263157894734v30h-21.05263157894734Z" style="fill: rgb(222, 242, 181);"></path><path d="M463.157894736842,540h21.052631578947512v30h-21.052631578947512Z" style="fill: rgb(230, 246, 185);"></path><path d="M757.8947368421052,90.00000000000001h21.0526315789474v29.999999999999957h-21.0526315789474Z" style="fill: rgb(239, 249, 189);"></path><path d="M0,540h21.05263157894736v30h-21.05263157894736Z" style="fill: rgb(239, 249, 189);"></path><path d="M505.2631578947368,390h21.05263157894757v30h-21.05263157894757Z" style="fill: rgb(164, 219, 183);"></path><path d="M357.8947368421052,540h21.05263157894734v30h-21.05263157894734Z" style="fill: rgb(164, 219, 183);"></path><path d="M315.78947368421046,59.999999999999986h21.052631578947228v30.00000000000003h-21.052631578947228Z" style="fill: rgb(239, 249, 189);"></path><path d="M84.2105263157895,540h21.05263157894737v30h-21.05263157894737Z" style="fill: rgb(239, 249, 189);"></path><path d="M42.10526315789472,540h21.052631578947384v30h-21.052631578947384Z" style="fill: rgb(230, 246, 185);"></path><path d="M673.6842105263156,330h21.052631578947626v30h-21.052631578947626Z" style="fill: rgb(239, 249, 189);"></path><path d="M315.78947368421046,570h21.052631578947228v30h-21.052631578947228Z" style="fill: rgb(239, 249, 189);"></path><path d="M547.3684210526316,360h21.052631578947512v30h-21.052631578947512Z" style="fill: rgb(164, 219, 183);"></path><path d="M210.52631578947364,180.00000000000003h21.05263157894737v29.99999999999997h-21.05263157894737Z" style="fill: rgb(239, 249, 189);"></path><path d="M210.52631578947364,30.00000000000003h21.05263157894737v29.999999999999957h-21.05263157894737Z" style="fill: rgb(239, 249, 189);"></path><path d="M610.5263157894736,300h21.052631578947512v30h-21.052631578947512Z" style="fill: rgb(230, 246, 185);"></path><path d="M252.63157894736835,360h21.052631578947313v30h-21.052631578947313Z" style="fill: rgb(239, 249, 189);"></path><path d="M589.4736842105264,360h21.0526315789474v30h-21.0526315789474Z" style="fill: rgb(239, 249, 189);"></path><path d="M778.9473684210526,59.999999999999986h21.0526315789474v30.00000000000003h-21.0526315789474Z" style="fill: rgb(239, 249, 189);"></path><path d="M568.4210526315788,330h21.052631578947512v30h-21.052631578947512Z" style="fill: rgb(222, 242, 181);"></path><path d="M357.8947368421052,270h21.05263157894734v30h-21.05263157894734Z" style="fill: rgb(239, 249, 189);"></path><path d="M568.4210526315788,360h21.052631578947512v30h-21.052631578947512Z" style="fill: rgb(197, 232, 181);"></path><path d="M589.4736842105264,330h21.0526315789474v30h-21.0526315789474Z" style="fill: rgb(239, 249, 189);"></path><path d="M189.4736842105263,570h21.05263157894734v30h-21.05263157894734Z" style="fill: rgb(222, 242, 181);"></path><path d="M589.4736842105264,420h21.0526315789474v30h-21.0526315789474Z" style="fill: rgb(239, 249, 189);"></path><path d="M126.3157894736842,540h21.052631578947384v30h-21.052631578947384Z" style="fill: rgb(230, 246, 185);"></path><path d="M631.5789473684209,360h21.052631578947512v30h-21.052631578947512Z" style="fill: rgb(230, 246, 185);"></path><path d="M589.4736842105264,450h21.0526315789474v30h-21.0526315789474Z" style="fill: rgb(239, 249, 189);"></path><path d="M294.7368421052631,240h21.05263157894734v30h-21.05263157894734Z" style="fill: rgb(239, 249, 189);"></path><path d="M231.578947368421,480h21.05263157894734v30h-21.05263157894734Z" style="fill: rgb(230, 246, 185);"></path><path d="M84.2105263157895,510h21.05263157894737v30h-21.05263157894737Z" style="fill: rgb(239, 249, 189);"></path><path d="M147.36842105263156,390h21.05263157894734v30h-21.05263157894734Z" style="fill: rgb(239, 249, 189);"></path><path d="M231.578947368421,570h21.05263157894734v30h-21.05263157894734Z" style="fill: rgb(239, 249, 189);"></path><path d="M147.36842105263156,420h21.05263157894734v30h-21.05263157894734Z" style="fill: rgb(239, 249, 189);"></path><path d="M589.4736842105264,390h21.0526315789474v30h-21.0526315789474Z" style="fill: rgb(230, 246, 185);"></path><path d="M673.6842105263156,270h21.052631578947626v30h-21.052631578947626Z" style="fill: rgb(239, 249, 189);"></path><path d="M484.21052631578954,540h21.052631578947455v30h-21.052631578947455Z" style="fill: rgb(239, 249, 189);"></path><path d="M336.84210526315786,180.00000000000003h21.0526315789474v29.99999999999997h-21.0526315789474Z" style="fill: rgb(239, 249, 189);"></path><path d="M63.1578947368421,450h21.05263157894739v30h-21.05263157894739Z" style="fill: rgb(239, 249, 189);"></path><path d="M210.52631578947364,540h21.05263157894737v30h-21.05263157894737Z" style="fill: rgb(210, 237, 180);"></path><path d="M547.3684210526316,420h21.052631578947512v30h-21.052631578947512Z" style="fill: rgb(239, 249, 189);"></path><path d="M399.99999999999994,59.999999999999986h21.05263157894734v30.00000000000003h-21.05263157894734Z" style="fill: rgb(239, 249, 189);"></path><path d="M105.26315789473682,570h21.052631578947384v30h-21.052631578947384Z" style="fill: rgb(239, 249, 189);"></path><path d="M126.3157894736842,570h21.052631578947384v30h-21.052631578947384Z" style="fill: rgb(239, 249, 189);"></path><path d="M399.99999999999994,240h21.05263157894734v30h-21.05263157894734Z" style="fill: rgb(230, 246, 185);"></path><path d="M252.63157894736835,330h21.052631578947313v30h-21.052631578947313Z" style="fill: rgb(239, 249, 189);"></path><path d="M63.1578947368421,360h21.05263157894739v30h-21.05263157894739Z" style="fill: rgb(239, 249, 189);"></path><path d="M610.5263157894736,330h21.052631578947512v30h-21.052631578947512Z" style="fill: rgb(239, 249, 189);"></path><path d="M610.5263157894736,390h21.052631578947512v30h-21.052631578947512Z" style="fill: rgb(239, 249, 189);"></path><path d="M210.52631578947364,450h21.05263157894737v30h-21.05263157894737Z" style="fill: rgb(239, 249, 189);"></path><path d="M126.3157894736842,90.00000000000001h21.052631578947384v29.999999999999957h-21.052631578947384Z" style="fill: rgb(239, 249, 189);"></path><path d="M105.26315789473682,480h21.052631578947384v30h-21.052631578947384Z" style="fill: rgb(230, 246, 185);"></path><path d="M252.63157894736835,420h21.052631578947313v30h-21.052631578947313Z" style="fill: rgb(239, 249, 189);"></path><path d="M673.6842105263156,180.00000000000003h21.052631578947626v29.99999999999997h-21.052631578947626Z" style="fill: rgb(239, 249, 189);"></path><path d="M652.6315789473684,270h21.05263157894717v30h-21.05263157894717Z" style="fill: rgb(239, 249, 189);"></path><path d="M442.1052631578948,510h21.0526315789474v30h-21.0526315789474Z" style="fill: rgb(239, 249, 189);"></path><path d="M421.0526315789473,30.00000000000003h21.05263157894734v29.999999999999957h-21.05263157894734Z" style="fill: rgb(239, 249, 189);"></path><path d="M210.52631578947364,570h21.05263157894737v30h-21.05263157894737Z" style="fill: rgb(239, 249, 189);"></path><path d="M652.6315789473684,150h21.05263157894717v30.00000000000003h-21.05263157894717Z" style="fill: rgb(239, 249, 189);"></path><path d="M421.0526315789473,90.00000000000001h21.05263157894734v29.999999999999957h-21.05263157894734Z" style="fill: rgb(239, 249, 189);"></path><path d="M189.4736842105263,540h21.05263157894734v30h-21.05263157894734Z" style="fill: rgb(230, 246, 185);"></path><path d="M589.4736842105264,240h21.0526315789474v30h-21.0526315789474Z" style="fill: rgb(239, 249, 189);"></path><path d="M399.99999999999994,150h21.05263157894734v30.00000000000003h-21.05263157894734Z" style="fill: rgb(239, 249, 189);"></path><path d="M357.8947368421052,180.00000000000003h21.05263157894734v29.99999999999997h-21.05263157894734Z" style="fill: rgb(239, 249, 189);"></path><path d="M421.0526315789473,119.99999999999997h21.05263157894734v30.00000000000003h-21.05263157894734Z" style="fill: rgb(239, 249, 189);"></path><path d="M526.315789473684,480h21.052631578947512v30h-21.052631578947512Z" style="fill: rgb(239, 249, 189);"></path><path d="M694.7368421052632,150h21.0526315789474v30.00000000000003h-21.0526315789474Z" style="fill: rgb(239, 249, 189);"></path><path d="M294.7368421052631,30.00000000000003h21.05263157894734v29.999999999999957h-21.05263157894734Z" style="fill: rgb(239, 249, 189);"></path><path d="M273.6842105263157,450h21.0526315789474v30h-21.0526315789474Z" style="fill: rgb(239, 249, 189);"></path><path d="M652.6315789473684,510h21.05263157894717v30h-21.05263157894717Z" style="fill: rgb(239, 249, 189);"></path></g><g class="mark-group role-legend"><g transform="translate(818,0)"><path class="background" d="M0,0h94v216h-94Z" style="pointer-events: none; fill: none;"></path><g><g class="mark-group role-legend-entry"><g transform="translate(0,16)"><path class="background" d="M0,0h0v0h0Z" style="pointer-events: none; fill: none;"></path><g><g class="mark-rect role-legend-gradient" style="pointer-events: none;"><path d="M0,0h16v200h-16Z" style="fill: url(#gradient_0); stroke: #ddd; stroke-width: 0; opacity: 1;"></path></g><g class="mark-text role-legend-label" style="pointer-events: none;"><text text-anchor="start" transform="translate(18,168.2173913043478)" style="font-family: sans-serif; font-size: 10px; fill: #000; opacity: 1;">5</text><text text-anchor="start" transform="translate(18,124.73913043478262)" style="font-family: sans-serif; font-size: 10px; fill: #000; opacity: 1;">10</text><text text-anchor="start" transform="translate(18,81.26086956521738)" style="font-family: sans-serif; font-size: 10px; fill: #000; opacity: 1;">15</text><text text-anchor="start" transform="translate(18,37.78260869565217)" style="font-family: sans-serif; font-size: 10px; fill: #000; opacity: 1;">20</text></g></g><path class="foreground" d="" style="pointer-events: none; display: none; fill: none;"></path></g></g><g class="mark-text role-legend-title" style="pointer-events: none;"><text text-anchor="start" transform="translate(0,9)" style="font-family: sans-serif; font-size: 11px; font-weight: bold; fill: #000; opacity: 1;">Count of Records</text></g></g><path class="foreground" d="" style="pointer-events: none; display: none; fill: none;"></path></g></g><g class="mark-group role-axis"><g transform="translate(0.5,600.5)"><path class="background" d="M0,0h0v0h0Z" style="pointer-events: none; fill: none;"></path><g><g class="mark-rule role-axis-tick" style="pointer-events: none;"><line transform="translate(0,0)" x2="0" y2="5" style="fill: none; stroke: #888; stroke-width: 1; opacity: 1;"></line><line transform="translate(21,0)" x2="0" y2="5" style="fill: none; stroke: #888; stroke-width: 1; opacity: 1;"></line><line transform="translate(42,0)" x2="0" y2="5" style="fill: none; stroke: #888; stroke-width: 1; opacity: 1;"></line><line transform="translate(63,0)" x2="0" y2="5" style="fill: none; stroke: #888; stroke-width: 1; opacity: 1;"></line><line transform="translate(84,0)" x2="0" y2="5" style="fill: none; stroke: #888; stroke-width: 1; opacity: 1;"></line><line transform="translate(105,0)" x2="0" y2="5" style="fill: none; stroke: #888; stroke-width: 1; opacity: 1;"></line><line transform="translate(126,0)" x2="0" y2="5" style="fill: none; stroke: #888; stroke-width: 1; opacity: 1;"></line><line transform="translate(147,0)" x2="0" y2="5" style="fill: none; stroke: #888; stroke-width: 1; opacity: 1;"></line><line transform="translate(168,0)" x2="0" y2="5" style="fill: none; stroke: #888; stroke-width: 1; opacity: 1;"></line><line transform="translate(189,0)" x2="0" y2="5" style="fill: none; stroke: #888; stroke-width: 1; opacity: 1;"></line><line transform="translate(211,0)" x2="0" y2="5" style="fill: none; stroke: #888; stroke-width: 1; opacity: 1;"></line><line transform="translate(232,0)" x2="0" y2="5" style="fill: none; stroke: #888; stroke-width: 1; opacity: 1;"></line><line transform="translate(253,0)" x2="0" y2="5" style="fill: none; stroke: #888; stroke-width: 1; opacity: 1;"></line><line transform="translate(274,0)" x2="0" y2="5" style="fill: none; stroke: #888; stroke-width: 1; opacity: 1;"></line><line transform="translate(295,0)" x2="0" y2="5" style="fill: none; stroke: #888; stroke-width: 1; opacity: 1;"></line><line transform="translate(316,0)" x2="0" y2="5" style="fill: none; stroke: #888; stroke-width: 1; opacity: 1;"></line><line transform="translate(337,0)" x2="0" y2="5" style="fill: none; stroke: #888; stroke-width: 1; opacity: 1;"></line><line transform="translate(358,0)" x2="0" y2="5" style="fill: none; stroke: #888; stroke-width: 1; opacity: 1;"></line><line transform="translate(379,0)" x2="0" y2="5" style="fill: none; stroke: #888; stroke-width: 1; opacity: 1;"></line><line transform="translate(400,0)" x2="0" y2="5" style="fill: none; stroke: #888; stroke-width: 1; opacity: 1;"></line><line transform="translate(421,0)" x2="0" y2="5" style="fill: none; stroke: #888; stroke-width: 1; opacity: 1;"></line><line transform="translate(442,0)" x2="0" y2="5" style="fill: none; stroke: #888; stroke-width: 1; opacity: 1;"></line><line transform="translate(463,0)" x2="0" y2="5" style="fill: none; stroke: #888; stroke-width: 1; opacity: 1;"></line><line transform="translate(484,0)" x2="0" y2="5" style="fill: none; stroke: #888; stroke-width: 1; opacity: 1;"></line><line transform="translate(505,0)" x2="0" y2="5" style="fill: none; stroke: #888; stroke-width: 1; opacity: 1;"></line><line transform="translate(526,0)" x2="0" y2="5" style="fill: none; stroke: #888; stroke-width: 1; opacity: 1;"></line><line transform="translate(547,0)" x2="0" y2="5" style="fill: none; stroke: #888; stroke-width: 1; opacity: 1;"></line><line transform="translate(568,0)" x2="0" y2="5" style="fill: none; stroke: #888; stroke-width: 1; opacity: 1;"></line><line transform="translate(589,0)" x2="0" y2="5" style="fill: none; stroke: #888; stroke-width: 1; opacity: 1;"></line><line transform="translate(611,0)" x2="0" y2="5" style="fill: none; stroke: #888; stroke-width: 1; opacity: 1;"></line><line transform="translate(632,0)" x2="0" y2="5" style="fill: none; stroke: #888; stroke-width: 1; opacity: 1;"></line><line transform="translate(653,0)" x2="0" y2="5" style="fill: none; stroke: #888; stroke-width: 1; opacity: 1;"></line><line transform="translate(674,0)" x2="0" y2="5" style="fill: none; stroke: #888; stroke-width: 1; opacity: 1;"></line><line transform="translate(695,0)" x2="0" y2="5" style="fill: none; stroke: #888; stroke-width: 1; opacity: 1;"></line><line transform="translate(716,0)" x2="0" y2="5" style="fill: none; stroke: #888; stroke-width: 1; opacity: 1;"></line><line transform="translate(737,0)" x2="0" y2="5" style="fill: none; stroke: #888; stroke-width: 1; opacity: 1;"></line><line transform="translate(758,0)" x2="0" y2="5" style="fill: none; stroke: #888; stroke-width: 1; opacity: 1;"></line><line transform="translate(779,0)" x2="0" y2="5" style="fill: none; stroke: #888; stroke-width: 1; opacity: 1;"></line><line transform="translate(800,0)" x2="0" y2="5" style="fill: none; stroke: #888; stroke-width: 1; opacity: 1;"></line></g><g class="mark-text role-axis-label" style="pointer-events: none;"><text text-anchor="start" transform="translate(0,15)" style="font-family: sans-serif; font-size: 10px; fill: #000; opacity: 1;">1.6</text><text text-anchor="middle" transform="translate(21.05263157894736,15)" style="font-family: sans-serif; font-size: 10px; fill: #000; opacity: 0;">1.8</text><text text-anchor="middle" transform="translate(42.10526315789472,15)" style="font-family: sans-serif; font-size: 10px; fill: #000; opacity: 1;">2.0</text><text text-anchor="middle" transform="translate(63.1578947368421,15)" style="font-family: sans-serif; font-size: 10px; fill: #000; opacity: 0;">2.2</text><text text-anchor="middle" transform="translate(84.2105263157895,15)" style="font-family: sans-serif; font-size: 10px; fill: #000; opacity: 1;">2.4</text><text text-anchor="middle" transform="translate(105.26315789473682,15)" style="font-family: sans-serif; font-size: 10px; fill: #000; opacity: 0;">2.6</text><text text-anchor="middle" transform="translate(126.3157894736842,15)" style="font-family: sans-serif; font-size: 10px; fill: #000; opacity: 1;">2.8</text><text text-anchor="middle" transform="translate(147.36842105263156,15)" style="font-family: sans-serif; font-size: 10px; fill: #000; opacity: 0;">3.0</text><text text-anchor="middle" transform="translate(168.4210526315789,15)" style="font-family: sans-serif; font-size: 10px; fill: #000; opacity: 1;">3.2</text><text text-anchor="middle" transform="translate(189.4736842105263,15)" style="font-family: sans-serif; font-size: 10px; fill: #000; opacity: 0;">3.4</text><text text-anchor="middle" transform="translate(210.52631578947364,15)" style="font-family: sans-serif; font-size: 10px; fill: #000; opacity: 1;">3.6</text><text text-anchor="middle" transform="translate(231.578947368421,15)" style="font-family: sans-serif; font-size: 10px; fill: #000; opacity: 0;">3.8</text><text text-anchor="middle" transform="translate(252.63157894736835,15)" style="font-family: sans-serif; font-size: 10px; fill: #000; opacity: 1;">4.0</text><text text-anchor="middle" transform="translate(273.6842105263157,15)" style="font-family: sans-serif; font-size: 10px; fill: #000; opacity: 0;">4.2</text><text text-anchor="middle" transform="translate(294.7368421052631,15)" style="font-family: sans-serif; font-size: 10px; fill: #000; opacity: 1;">4.4</text><text text-anchor="middle" transform="translate(315.78947368421046,15)" style="font-family: sans-serif; font-size: 10px; fill: #000; opacity: 0;">4.6</text><text text-anchor="middle" transform="translate(336.84210526315786,15)" style="font-family: sans-serif; font-size: 10px; fill: #000; opacity: 1;">4.8</text><text text-anchor="middle" transform="translate(357.8947368421052,15)" style="font-family: sans-serif; font-size: 10px; fill: #000; opacity: 0;">5.0</text><text text-anchor="middle" transform="translate(378.94736842105254,15)" style="font-family: sans-serif; font-size: 10px; fill: #000; opacity: 1;">5.2</text><text text-anchor="middle" transform="translate(399.99999999999994,15)" style="font-family: sans-serif; font-size: 10px; fill: #000; opacity: 0;">5.4</text><text text-anchor="middle" transform="translate(421.0526315789473,15)" style="font-family: sans-serif; font-size: 10px; fill: #000; opacity: 1;">5.6</text><text text-anchor="middle" transform="translate(442.1052631578948,15)" style="font-family: sans-serif; font-size: 10px; fill: #000; opacity: 0;">5.8</text><text text-anchor="middle" transform="translate(463.157894736842,15)" style="font-family: sans-serif; font-size: 10px; fill: #000; opacity: 1;">6.0</text><text text-anchor="middle" transform="translate(484.21052631578954,15)" style="font-family: sans-serif; font-size: 10px; fill: #000; opacity: 0;">6.2</text><text text-anchor="middle" transform="translate(505.2631578947368,15)" style="font-family: sans-serif; font-size: 10px; fill: #000; opacity: 1;">6.4</text><text text-anchor="middle" transform="translate(526.315789473684,15)" style="font-family: sans-serif; font-size: 10px; fill: #000; opacity: 0;">6.6</text><text text-anchor="middle" transform="translate(547.3684210526316,15)" style="font-family: sans-serif; font-size: 10px; fill: #000; opacity: 1;">6.8</text><text text-anchor="middle" transform="translate(568.4210526315788,15)" style="font-family: sans-serif; font-size: 10px; fill: #000; opacity: 0;">7.0</text><text text-anchor="middle" transform="translate(589.4736842105264,15)" style="font-family: sans-serif; font-size: 10px; fill: #000; opacity: 1;">7.2</text><text text-anchor="middle" transform="translate(610.5263157894736,15)" style="font-family: sans-serif; font-size: 10px; fill: #000; opacity: 0;">7.4</text><text text-anchor="middle" transform="translate(631.5789473684209,15)" style="font-family: sans-serif; font-size: 10px; fill: #000; opacity: 1;">7.6</text><text text-anchor="middle" transform="translate(652.6315789473684,15)" style="font-family: sans-serif; font-size: 10px; fill: #000; opacity: 0;">7.8</text><text text-anchor="middle" transform="translate(673.6842105263156,15)" style="font-family: sans-serif; font-size: 10px; fill: #000; opacity: 1;">8.0</text><text text-anchor="middle" transform="translate(694.7368421052632,15)" style="font-family: sans-serif; font-size: 10px; fill: #000; opacity: 0;">8.2</text><text text-anchor="middle" transform="translate(715.7894736842104,15)" style="font-family: sans-serif; font-size: 10px; fill: #000; opacity: 1;">8.4</text><text text-anchor="middle" transform="translate(736.8421052631578,15)" style="font-family: sans-serif; font-size: 10px; fill: #000; opacity: 0;">8.6</text><text text-anchor="middle" transform="translate(757.8947368421052,15)" style="font-family: sans-serif; font-size: 10px; fill: #000; opacity: 1;">8.8</text><text text-anchor="middle" transform="translate(778.9473684210526,15)" style="font-family: sans-serif; font-size: 10px; fill: #000; opacity: 0;">9.0</text><text text-anchor="end" transform="translate(800,15)" style="font-family: sans-serif; font-size: 10px; fill: #000; opacity: 1;">9.2</text></g><g class="mark-rule role-axis-domain" style="pointer-events: none;"><line transform="translate(0,0)" x2="800" y2="0" style="fill: none; stroke: #888; stroke-width: 1; opacity: 1;"></line></g><g class="mark-text role-axis-title" style="pointer-events: none;"><text text-anchor="middle" transform="translate(400,30)" style="font-family: sans-serif; font-size: 11px; font-weight: bold; fill: #000; opacity: 1;">IMDB_Rating (binned)</text></g></g><path class="foreground" d="" style="pointer-events: none; display: none; fill: none;"></path></g></g><g class="mark-group role-axis"><g transform="translate(0.5,0.5)"><path class="background" d="M0,0h0v0h0Z" style="pointer-events: none; fill: none;"></path><g><g class="mark-rule role-axis-tick" style="pointer-events: none;"><line transform="translate(0,600)" x2="-5" y2="0" style="fill: none; stroke: #888; stroke-width: 1; opacity: 1;"></line><line transform="translate(0,570)" x2="-5" y2="0" style="fill: none; stroke: #888; stroke-width: 1; opacity: 1;"></line><line transform="translate(0,540)" x2="-5" y2="0" style="fill: none; stroke: #888; stroke-width: 1; opacity: 1;"></line><line transform="translate(0,510)" x2="-5" y2="0" style="fill: none; stroke: #888; stroke-width: 1; opacity: 1;"></line><line transform="translate(0,480)" x2="-5" y2="0" style="fill: none; stroke: #888; stroke-width: 1; opacity: 1;"></line><line transform="translate(0,450)" x2="-5" y2="0" style="fill: none; stroke: #888; stroke-width: 1; opacity: 1;"></line><line transform="translate(0,420)" x2="-5" y2="0" style="fill: none; stroke: #888; stroke-width: 1; opacity: 1;"></line><line transform="translate(0,390)" x2="-5" y2="0" style="fill: none; stroke: #888; stroke-width: 1; opacity: 1;"></line><line transform="translate(0,360)" x2="-5" y2="0" style="fill: none; stroke: #888; stroke-width: 1; opacity: 1;"></line><line transform="translate(0,330)" x2="-5" y2="0" style="fill: none; stroke: #888; stroke-width: 1; opacity: 1;"></line><line transform="translate(0,300)" x2="-5" y2="0" style="fill: none; stroke: #888; stroke-width: 1; opacity: 1;"></line><line transform="translate(0,270)" x2="-5" y2="0" style="fill: none; stroke: #888; stroke-width: 1; opacity: 1;"></line><line transform="translate(0,240)" x2="-5" y2="0" style="fill: none; stroke: #888; stroke-width: 1; opacity: 1;"></line><line transform="translate(0,210)" x2="-5" y2="0" style="fill: none; stroke: #888; stroke-width: 1; opacity: 1;"></line><line transform="translate(0,180)" x2="-5" y2="0" style="fill: none; stroke: #888; stroke-width: 1; opacity: 1;"></line><line transform="translate(0,150)" x2="-5" y2="0" style="fill: none; stroke: #888; stroke-width: 1; opacity: 1;"></line><line transform="translate(0,120)" x2="-5" y2="0" style="fill: none; stroke: #888; stroke-width: 1; opacity: 1;"></line><line transform="translate(0,90)" x2="-5" y2="0" style="fill: none; stroke: #888; stroke-width: 1; opacity: 1;"></line><line transform="translate(0,60)" x2="-5" y2="0" style="fill: none; stroke: #888; stroke-width: 1; opacity: 1;"></line><line transform="translate(0,30)" x2="-5" y2="0" style="fill: none; stroke: #888; stroke-width: 1; opacity: 1;"></line><line transform="translate(0,0)" x2="-5" y2="0" style="fill: none; stroke: #888; stroke-width: 1; opacity: 1;"></line></g><g class="mark-text role-axis-label" style="pointer-events: none;"><text text-anchor="end" transform="translate(-7,603)" style="font-family: sans-serif; font-size: 10px; fill: #000; opacity: 1;">0</text><text text-anchor="end" transform="translate(-7,573)" style="font-family: sans-serif; font-size: 10px; fill: #000; opacity: 1;">5</text><text text-anchor="end" transform="translate(-7,543)" style="font-family: sans-serif; font-size: 10px; fill: #000; opacity: 1;">10</text><text text-anchor="end" transform="translate(-7,513)" style="font-family: sans-serif; font-size: 10px; fill: #000; opacity: 1;">15</text><text text-anchor="end" transform="translate(-7,483)" style="font-family: sans-serif; font-size: 10px; fill: #000; opacity: 1;">20</text><text text-anchor="end" transform="translate(-7,453)" style="font-family: sans-serif; font-size: 10px; fill: #000; opacity: 1;">25</text><text text-anchor="end" transform="translate(-7,423)" style="font-family: sans-serif; font-size: 10px; fill: #000; opacity: 1;">30</text><text text-anchor="end" transform="translate(-7,393)" style="font-family: sans-serif; font-size: 10px; fill: #000; opacity: 1;">35</text><text text-anchor="end" transform="translate(-7,363)" style="font-family: sans-serif; font-size: 10px; fill: #000; opacity: 1;">40</text><text text-anchor="end" transform="translate(-7,333)" style="font-family: sans-serif; font-size: 10px; fill: #000; opacity: 1;">45</text><text text-anchor="end" transform="translate(-7,303)" style="font-family: sans-serif; font-size: 10px; fill: #000; opacity: 1;">50</text><text text-anchor="end" transform="translate(-7,273)" style="font-family: sans-serif; font-size: 10px; fill: #000; opacity: 1;">55</text><text text-anchor="end" transform="translate(-7,243)" style="font-family: sans-serif; font-size: 10px; fill: #000; opacity: 1;">60</text><text text-anchor="end" transform="translate(-7,213)" style="font-family: sans-serif; font-size: 10px; fill: #000; opacity: 1;">65</text><text text-anchor="end" transform="translate(-7,183.00000000000003)" style="font-family: sans-serif; font-size: 10px; fill: #000; opacity: 1;">70</text><text text-anchor="end" transform="translate(-7,153)" style="font-family: sans-serif; font-size: 10px; fill: #000; opacity: 1;">75</text><text text-anchor="end" transform="translate(-7,122.99999999999997)" style="font-family: sans-serif; font-size: 10px; fill: #000; opacity: 1;">80</text><text text-anchor="end" transform="translate(-7,93.00000000000001)" style="font-family: sans-serif; font-size: 10px; fill: #000; opacity: 1;">85</text><text text-anchor="end" transform="translate(-7,62.999999999999986)" style="font-family: sans-serif; font-size: 10px; fill: #000; opacity: 1;">90</text><text text-anchor="end" transform="translate(-7,33.00000000000003)" style="font-family: sans-serif; font-size: 10px; fill: #000; opacity: 1;">95</text><text text-anchor="end" transform="translate(-7,3)" style="font-family: sans-serif; font-size: 10px; fill: #000; opacity: 1;">100</text></g><g class="mark-rule role-axis-domain" style="pointer-events: none;"><line transform="translate(0,600)" x2="0" y2="-600" style="fill: none; stroke: #888; stroke-width: 1; opacity: 1;"></line></g><g class="mark-text role-axis-title" style="pointer-events: none;"><text text-anchor="middle" transform="translate(-29,300) rotate(-90) translate(0,-2)" style="font-family: sans-serif; font-size: 11px; font-weight: bold; fill: #000; opacity: 1;">Rotten_Tomatoes_Rating (binned)</text></g></g><path class="foreground" d="" style="pointer-events: none; display: none; fill: none;"></path></g></g></g><path class="foreground" d="" style="display: none; fill: none;"></path></g></g></g></svg>